<?xml version="1.0" standalone="no"?>
<!DOCTYPE svg PUBLIC "-//W3C//DTD SVG 1.1//EN" "http://www.w3.org/Graphics/SVG/1.1/DTD/svg11.dtd" >
<svg xmlns="http://www.w3.org/2000/svg" xmlns:xlink="http://www.w3.org/1999/xlink" version="1.1">
<metadata>
Created by FontForge 20170731 at Fri Jun 30 16:20:00 2017
 By Aleksey,,,
This work is licensed under a Creative Commons Attribution-NonCommercial-ShareAlike 4.0 License
</metadata>
<defs>
<font id="MonadRegular" horiz-adv-x="640" >
  <font-face 
    font-family="Monad"
    font-weight="500"
    font-stretch="normal"
    units-per-em="1000"
    panose-1="0 0 0 0 0 0 0 0 0 0"
    ascent="833"
    descent="-167"
    x-height="667"
    cap-height="667"
    bbox="0 -167 909 861"
    underline-thickness="50"
    underline-position="-200"
    unicode-range="U+000D-20AC"
  />
<missing-glyph horiz-adv-x="650" 
 />
    <glyph glyph-name=".notdef" horiz-adv-x="650" 
 />
    <glyph glyph-name=".notdef" horiz-adv-x="650" 
 />
    <glyph glyph-name=".null" horiz-adv-x="0" 
 />
    <glyph glyph-name="nonmarkingreturn" horiz-adv-x="333" 
 />
    <glyph glyph-name="controlCR" unicode="&#xd;" horiz-adv-x="448" 
 />
    <glyph glyph-name="space" unicode=" " horiz-adv-x="448" 
 />
    <glyph glyph-name="exclam" unicode="!" horiz-adv-x="251" 
d="M97 667v-473h-83v473h83zM56 111q23 0 39 -16t16 -39t-16 -39.5t-39 -16.5t-39.5 16.5t-16.5 39.5t16.5 39t39.5 16z" />
    <glyph glyph-name="quotedbl" unicode="&#x22;" horiz-adv-x="362" 
d="M0 444v223h83v-223h-83zM139 667h83v-223h-83v223z" />
    <glyph glyph-name="numbersign" unicode="#" horiz-adv-x="751" 
d="M365 250l42 167h-161l-42 -167h161zM611 417h-118l-42 -167h105v-83h-125l-42 -167h-86l42 167h-162l-42 -167h-85l41 167h-97v83h118l42 167h-104v83h125l41 167h86l-42 -167h162l42 167h86l-42 -167h97v-83z" />
    <glyph glyph-name="dollar" unicode="$" horiz-adv-x="603" 
d="M463 187.5q0 -77.5 -55 -132.5t-133 -55h-2v-139h-83v139h-169v83h254q44 0 74.5 30.5t30.5 74t-30.5 74t-74.5 30.5h-87q-78 0 -133 54.5t-55 132.5t55 133t133 55h2v139h83v-139h148v-84h-233q-44 0 -74.5 -30.5t-30.5 -73.5t30.5 -73.5t74.5 -30.5h87q78 0 133 -55
t55 -132.5z" />
    <glyph glyph-name="percent" unicode="%" horiz-adv-x="1029" 
d="M603 667h98l-415 -667h-98zM83 479q0 -43 30.5 -73.5t74 -30.5t74 30.5t30.5 73.5t-30.5 73.5t-73.5 30.5q-29 0 -53 -14t-38 -38t-14 -52zM375 479.5q0 -77.5 -55 -132.5t-132.5 -55t-132.5 55t-55 132.5t55 132.5t132.5 55t132.5 -55t55 -132.5zM701 83q22 0 41 8.5
t33 22.5t22.5 33t8.5 41q0 43 -31 73.5t-74 30.5t-73.5 -30.5t-30.5 -74t30.5 -74t73.5 -30.5zM701.5 375q77.5 0 132.5 -55t55 -132.5t-55 -132.5t-132.5 -55t-132.5 55t-55 132.5t55 132.5t132.5 55z" />
    <glyph glyph-name="ampersand" unicode="&#x26;" horiz-adv-x="668" 
d="M361 194v112h-167q-46 0 -78.5 -33t-32.5 -79t32.5 -78.5t78.5 -32.5h56q46 0 78.5 32.5t32.5 78.5zM194 389h334v-83h-84v-112q0 -80 -56.5 -137t-137.5 -57h-56q-80 0 -137 57t-57 137.5t57 137.5q9 9 20 17q-5 5 -10 9q-53 53 -53 128t53 128t127 53h56q75 0 128 -53
t53 -128h-84q0 40 -28.5 68.5t-68.5 28.5h-56q-40 0 -68.5 -28.5t-28.5 -68.5t28.5 -68.5t68.5 -28.5z" />
    <glyph glyph-name="quotesingle" unicode="'" horiz-adv-x="223" 
d="M83 444h-83v223h83v-223z" />
    <glyph glyph-name="parenleft" unicode="(" horiz-adv-x="348" 
d="M208 -111q-86 0 -147 61t-61 147v472q0 87 61 148t147 61v-84q-51 0 -88 -36.5t-37 -88.5v-472q0 -34 17 -62.5t45.5 -45.5t62.5 -17v-83z" />
    <glyph glyph-name="parenright" unicode=")" horiz-adv-x="348" 
d="M0 -111v83q52 0 88.5 37t36.5 88v472q0 52 -36.5 88.5t-88.5 36.5v84q86 0 147 -61t61 -148v-472q0 -86 -61 -147t-147 -61z" />
    <glyph glyph-name="asterisk" unicode="*" horiz-adv-x="360" 
d="M166 556l54 -32l-28 -48l-54 32v-64h-56v63l-54 -31l-28 48l55 32l-55 31l28 48l54 -31v63h56v-63l54 31l28 -48z" />
    <glyph glyph-name="plus" unicode="+" horiz-adv-x="473" 
d="M333 319v-83h-125v-125h-83v125h-125v83h125v125h83v-125h125z" />
    <glyph glyph-name="comma" unicode="," horiz-adv-x="251" 
d="M111 56v-112h-55v56q-23 0 -39.5 16.5t-16.5 39.5t16 39t40 16q15 0 27.5 -7.5t20 -20t7.5 -27.5z" />
    <glyph glyph-name="hyphen" unicode="-" horiz-adv-x="473" 
d="M333 236h-333v83h333v-83z" />
    <glyph glyph-name="period" unicode="." horiz-adv-x="251" 
d="M111 56q0 -23 -16 -39.5t-39 -16.5t-39.5 16.5t-16.5 39.5t16.5 39t39.5 16t39 -16t16 -39z" />
    <glyph glyph-name="slash" unicode="/" horiz-adv-x="584" 
d="M90 -111h-90l355 889h89z" />
    <glyph glyph-name="zero" unicode="0" horiz-adv-x="584" 
d="M222.5 583q-57.5 0 -98.5 -40.5t-41 -98.5v-222q0 -57 41 -98t98.5 -41t98 41t40.5 98v222q0 58 -40.5 98.5t-98 40.5zM222 0q-92 0 -157 65t-65 157v222q0 92 65 157.5t157 65.5t157 -65.5t65 -157.5v-222q0 -92 -65 -157t-157 -65z" />
    <glyph glyph-name="one" unicode="1" horiz-adv-x="348" 
d="M208 0h-83v583h-125v84h208v-667z" />
    <glyph glyph-name="two" unicode="2" horiz-adv-x="584" 
d="M125 83h319v-83h-444v83l314 279q38 38 38 91.5t-38 91.5t-91.5 38t-91.5 -38t-38 -91h-84q0 88 62.5 150.5t151 62.5t150.5 -62.5t62 -151t-62 -150.5z" />
    <glyph glyph-name="three" unicode="3" horiz-adv-x="584" 
d="M375 333q8 -6 15 -13q54 -55 54 -132.5t-54.5 -132.5t-132.5 -55h-69q-78 0 -133 55t-55 133h83q0 -44 30.5 -74.5t74.5 -30.5h69q43 0 73.5 30.5t30.5 74t-30.5 74t-73.5 30.5h-69v83h69q43 0 73.5 30.5t30.5 73.5t-30.5 73.5t-73.5 30.5h-69q-44 0 -74.5 -30.5
t-30.5 -73.5h-83q0 78 55 133t133 55h69q78 0 132.5 -55t54.5 -133t-54 -132q-7 -7 -15 -14z" />
    <glyph glyph-name="four" unicode="4" horiz-adv-x="584" 
d="M444 333v-333h-83v125h-361v83l265 459h96l-265 -459h265v125h83z" />
    <glyph glyph-name="five" unicode="5" horiz-adv-x="584" 
d="M444 187.5q0 -77.5 -54.5 -132.5t-132.5 -55h-257v83h257q43 0 73.5 30.5t30.5 74t-30.5 74t-73.5 30.5h-229v375h361v-84h-278v-208h146q78 0 132.5 -55t54.5 -132.5z" />
    <glyph glyph-name="six" unicode="6" horiz-adv-x="584" 
d="M320.5 124q40.5 41 40.5 98.5t-40.5 98t-98 40.5t-98.5 -41q-10 -10 -18 -22q-23 -34 -23 -76q0 -57 41 -98t98.5 -41t98 41zM379 379q65 -65 65 -157t-65 -157t-157 -65t-157 65t-65 157q0 60 29 111l205 334h98l-138 -224q14 1 28 1q92 0 157 -65z" />
    <glyph glyph-name="seven" unicode="7" horiz-adv-x="584" 
d="M444 667v-84l-269 -583h-92l270 583h-353v84h444z" />
    <glyph glyph-name="eight" unicode="8" horiz-adv-x="584" 
d="M328.5 115.5q32.5 32.5 32.5 78.5t-32.5 79t-78.5 33h-56q-46 0 -78.5 -33t-32.5 -79t32.5 -78.5t78.5 -32.5h56q46 0 78.5 32.5zM125.5 417.5q28.5 -28.5 68.5 -28.5h56q40 0 68.5 28.5t28.5 68.5t-28.5 68.5t-68.5 28.5h-56q-40 0 -68.5 -28.5t-28.5 -68.5t28.5 -68.5z
M388 332q56 -57 56 -137.5t-56.5 -137.5t-137.5 -57h-56q-80 0 -137 57t-57 137.5t57 137.5q9 9 20 17q-5 5 -10 9q-53 53 -53 128t53 128t127 53h56q75 0 128 -53t53 -128t-53 -128q-5 -4 -10 -9q10 -8 20 -17z" />
    <glyph glyph-name="nine" unicode="9" horiz-adv-x="584" 
d="M124 542.5q-41 -40.5 -41 -98t41 -98t98.5 -40.5t97.5 40q11 10 19 23q22 34 22 75q0 58 -40.5 98.5t-98 40.5t-98.5 -40.5zM65 287q-65 65 -65 157t65 157.5t157 65.5t157 -65.5t65 -157.5q0 -59 -29 -110l-205 -334h-97l137 224q-13 -2 -28 -2q-92 0 -157 65z" />
    <glyph glyph-name="colon" unicode=":" horiz-adv-x="251" 
d="M56 278q-23 0 -39.5 16t-16.5 39t16.5 39.5t39.5 16.5t39 -16.5t16 -39.5t-16 -39t-39 -16zM56 111q23 0 39 -16t16 -39t-16 -39.5t-39 -16.5t-39.5 16.5t-16.5 39.5t16.5 39t39.5 16z" />
    <glyph glyph-name="semicolon" unicode=";" horiz-adv-x="251" 
d="M56 278q-23 0 -39.5 16t-16.5 39t16.5 39.5t39.5 16.5t39 -16.5t16 -39.5t-16 -39t-39 -16zM55.5 111q23.5 0 39.5 -16t16 -39v-112h-55v56q-23 0 -39.5 16.5t-16.5 39.5t16 39t39.5 16z" />
    <glyph glyph-name="less" unicode="&#x3c;" horiz-adv-x="473" 
d="M333 500v-95l-235 -127l235 -128v-94l-333 180v83z" />
    <glyph glyph-name="equal" unicode="=" horiz-adv-x="473" 
d="M0 417h333v-84h-333v84zM0 139v83h333v-83h-333z" />
    <glyph glyph-name="greater" unicode="&#x3e;" horiz-adv-x="473" 
d="M0 500l333 -181v-83l-333 -180v94l235 128l-235 127v95z" />
    <glyph glyph-name="question" unicode="?" horiz-adv-x="584" 
d="M389 612q55 -55 55 -132.5t-54 -132.5q-53 -53 -126 -55v-98h-83v181h76q43 0 73.5 30.5t30.5 73.5t-30.5 73.5t-73.5 30.5h-70q-43 0 -73.5 -30.5t-30.5 -73.5h-83q0 78 55 133t133 55h69q77 0 132 -55zM222 111q23 0 39.5 -16t16.5 -39t-16.5 -39.5t-39.5 -16.5
t-39 16.5t-16 39.5t16 39t39 16z" />
    <glyph glyph-name="at" unicode="@" horiz-adv-x="918" 
d="M528 83v139q0 58 -41 98.5t-98.5 40.5t-98 -40.5t-40.5 -98t40.5 -98.5t98.5 -41h139zM389 444q92 0 157 -65t65 -157v-139h83v139q0 127 -89 216.5t-216 89.5t-216.5 -89.5t-89.5 -216t89.5 -216t216.5 -89.5h222v-84h-222q-78 0 -149 29.5t-126 84.5t-84.5 126
t-29.5 149q0 52 13 101t38.5 93.5t62.5 80.5q55 55 126 84.5t149 29.5t149 -29.5t126 -84.5t84.5 -126t29.5 -149v-222h-389q-92 0 -157 65t-65 157t65 157t157 65z" />
    <glyph glyph-name="A" unicode="A" horiz-adv-x="807" 
d="M139 110l329 136l-135 308zM375 667l292 -667h-91l-75 170l-410 -170h-91l292 667h83z" />
    <glyph glyph-name="B" unicode="B" 
d="M386.5 113.5q30.5 30.5 30.5 74t-30.5 74t-74.5 30.5h-229v-209h229q44 0 74.5 30.5zM83 583v-208h174q43 0 73.5 30.5t30.5 73.5t-30.5 73.5t-73.5 30.5h-174zM445 320q55 -55 55 -132.5t-55 -132.5t-133 -55h-312v667h257q77 0 132 -55t55 -133q0 -71 -47 -124
q27 -14 48 -35z" />
    <glyph glyph-name="C" unicode="C" horiz-adv-x="725" 
d="M526 150l59 -59q-101 -100 -242.5 -100t-242 100t-100.5 242t100.5 242.5t242 100.5t242.5 -100l-59 -59q-76 76 -183.5 76t-183.5 -76t-76 -183.5t76 -183.5t183.5 -76t183.5 76z" />
    <glyph glyph-name="D" unicode="D" horiz-adv-x="696" 
d="M83 83h139q104 0 177 73.5t73 177t-73 176.5t-177 73h-139v-500zM222 0h-222v667h222q138 0 236 -98t98 -236t-98 -235.5t-236 -97.5z" />
    <glyph glyph-name="E" unicode="E" horiz-adv-x="603" 
d="M83 583v-166h297v-84h-297v-250h380v-83h-463v667h463v-84h-380z" />
    <glyph glyph-name="F" unicode="F" horiz-adv-x="603" 
d="M83 583v-166h297v-84h-297v-333h-83v667h463v-84h-380z" />
    <glyph glyph-name="G" unicode="G" horiz-adv-x="725" 
d="M585 375v-284q-101 -100 -242.5 -100t-242 100t-100.5 242t100.5 242.5t242 100.5t242.5 -100l-59 -59q-76 76 -183.5 76t-183.5 -76t-76 -183.5t76 -183.5t184 -76q89 0 158 55v163h-158v83h242z" />
    <glyph glyph-name="H" unicode="H" 
d="M500 667v-667h-83v357l-334 -138v-219h-83v667h83v-358l334 138v220h83z" />
    <glyph glyph-name="I" unicode="I" horiz-adv-x="223" 
d="M83 0h-83v667h83v-667z" />
    <glyph glyph-name="J" unicode="J" horiz-adv-x="473" 
d="M333 667v-334q0 -138 -97.5 -235.5t-235.5 -97.5v83q104 0 177 73.5t73 176.5v334h83z" />
    <glyph glyph-name="K" unicode="K" 
d="M500 667l-208 -334l208 -333h-98l-159 255l-160 -255h-83v667h83v-510l319 510h98z" />
    <glyph glyph-name="L" unicode="L" horiz-adv-x="603" 
d="M463 0h-463v667h83v-584h380v-83z" />
    <glyph glyph-name="M" unicode="M" horiz-adv-x="807" 
d="M583 667h84v-667h-84v540l-250 -286l-250 286v-540h-83v667h83l250 -286z" />
    <glyph glyph-name="N" unicode="N" 
d="M500 667v-667h-83v159l-334 381v-540h-83v667h83l334 -381v381h83z" />
    <glyph glyph-name="O" unicode="O" horiz-adv-x="825" 
d="M343 392l59 -59l-59 -59l-59 59zM342.5 74q107.5 0 183.5 76t76 183.5t-76 183.5t-183.5 76t-183.5 -76t-76 -183.5t76 -183.5t183.5 -76zM343 676q46 0 90.5 -12.5t82.5 -34.5t69 -53.5t53.5 -69t34.5 -82t12 -91.5q0 -69 -26.5 -132t-74 -110t-110 -73.5t-132 -26.5
t-132 26.5t-110 73.5t-74 110t-26.5 132q0 47 12 91.5t34.5 82t53.5 69.5q24 23 51.5 41.5t58 31.5t64.5 20t69 7z" />
    <glyph glyph-name="P" unicode="P" 
d="M376 346.5q41 40.5 41 98t-41 98t-98 40.5h-195v-277h195q57 0 98 40.5zM435 601.5q65 -65.5 65 -157.5t-65 -157t-157 -65h-195v-222h-83v667h278q92 0 157 -65.5z" />
    <glyph glyph-name="Q" unicode="Q" horiz-adv-x="825" 
d="M484 250l69 -68q49 67 49 151q0 108 -76 184t-183.5 76t-183.5 -76t-76 -183.5t76 -183.5t184 -76q84 0 151 49l-68 68zM685 333q0 -118 -73 -211l73 -72l-59 -59l-72 73q-93 -73 -211 -73q-70 0 -132.5 26.5t-110 73.5t-74 110t-26.5 132q0 47 12 91.5t34.5 82
t53.5 69.5q48 47 110.5 73.5t132 26.5t132 -26.5t110 -74t74 -110t26.5 -132.5z" />
    <glyph glyph-name="R" unicode="R" 
d="M83 306h195q57 0 98 40.5t41 98t-41 98t-98 40.5h-195v-277zM435 287q-36 -35 -82 -52l147 -235h-98l-139 222h-180v-222h-83v667h278q92 0 157 -65.5t65 -157.5t-65 -157z" />
    <glyph glyph-name="S" unicode="S" horiz-adv-x="603" 
d="M463 187.5q0 -77.5 -55 -132.5t-133 -55h-254v83h254q44 0 74.5 30.5t30.5 74t-30.5 74t-74.5 30.5h-87q-78 0 -133 54.5t-55 132.5t55 133t133 55h233v-84h-233q-44 0 -74.5 -30.5t-30.5 -73.5t30.5 -73.5t74.5 -30.5h87q78 0 133 -55t55 -132.5z" />
    <glyph glyph-name="T" unicode="T" 
d="M500 667v-84h-208v-583h-84v583h-208v84h500z" />
    <glyph glyph-name="U" unicode="U" 
d="M250 0q-104 0 -177 73t-73 177v417h83v-417q0 -69 49 -118t118 -49t118 49t49 118v417h83v-417q0 -104 -73 -177t-177 -73z" />
    <glyph glyph-name="V" unicode="V" horiz-adv-x="807" 
d="M576 667h91l-292 -667h-83l-292 667h91l242 -554z" />
    <glyph glyph-name="W" unicode="W" horiz-adv-x="1049" 
d="M821 667h88l-209 -667h-83l-163 521l-162 -521h-84l-208 667h87l163 -521l163 521h83l163 -521z" />
    <glyph glyph-name="X" unicode="X" horiz-adv-x="751" 
d="M611 667l-253 -334l253 -333h-105l-200 264l-201 -264h-105l253 333l-253 334h105l201 -265l200 265h105z" />
    <glyph glyph-name="Y" unicode="Y" horiz-adv-x="751" 
d="M509 667h102l-264 -375v-292h-83v292l-264 375h102l204 -290z" />
    <glyph glyph-name="Z" unicode="Z" 
d="M500 583l-390 -500h390v-83h-500v83l390 500h-390v84h500v-84z" />
    <glyph glyph-name="bracketleft" unicode="[" horiz-adv-x="348" 
d="M208 -111h-208v889h208v-84h-125v-722h125v-83z" />
    <glyph glyph-name="bracketright" unicode="]" horiz-adv-x="348" 
d="M0 -111v83h125v722h-125v84h208v-889h-208z" />
    <glyph glyph-name="underscore" unicode="_" horiz-adv-x="584" 
d="M444 -111h-444v83h444v-83z" />
    <glyph glyph-name="a" unicode="a" horiz-adv-x="807" 
d="M139 110l329 136l-135 308zM375 667l292 -667h-91l-75 170l-410 -170h-91l292 667h83z" />
    <glyph glyph-name="b" unicode="b" 
d="M386.5 113.5q30.5 30.5 30.5 74t-30.5 74t-74.5 30.5h-229v-209h229q44 0 74.5 30.5zM83 583v-208h174q43 0 73.5 30.5t30.5 73.5t-30.5 73.5t-73.5 30.5h-174zM445 320q55 -55 55 -132.5t-55 -132.5t-133 -55h-312v667h257q77 0 132 -55t55 -133q0 -71 -47 -124
q27 -14 48 -35z" />
    <glyph glyph-name="c" unicode="c" horiz-adv-x="725" 
d="M526 150l59 -59q-101 -100 -242.5 -100t-242 100t-100.5 242t100.5 242.5t242 100.5t242.5 -100l-59 -59q-76 76 -183.5 76t-183.5 -76t-76 -183.5t76 -183.5t183.5 -76t183.5 76z" />
    <glyph glyph-name="d" unicode="d" horiz-adv-x="696" 
d="M83 83h139q104 0 177 73.5t73 177t-73 176.5t-177 73h-139v-500zM222 0h-222v667h222q138 0 236 -98t98 -236t-98 -235.5t-236 -97.5z" />
    <glyph glyph-name="e" unicode="e" horiz-adv-x="603" 
d="M83 583v-166h297v-84h-297v-250h380v-83h-463v667h463v-84h-380z" />
    <glyph glyph-name="f" unicode="f" horiz-adv-x="603" 
d="M83 583v-166h297v-84h-297v-333h-83v667h463v-84h-380z" />
    <glyph glyph-name="g" unicode="g" horiz-adv-x="725" 
d="M585 375v-284q-101 -100 -242.5 -100t-242 100t-100.5 242t100.5 242.5t242 100.5t242.5 -100l-59 -59q-76 76 -183.5 76t-183.5 -76t-76 -183.5t76 -183.5t184 -76q89 0 158 55v163h-158v83h242z" />
    <glyph glyph-name="h" unicode="h" 
d="M500 667v-667h-83v357l-334 -138v-219h-83v667h83v-358l334 138v220h83z" />
    <glyph glyph-name="i" unicode="i" horiz-adv-x="223" 
d="M83 0h-83v667h83v-667z" />
    <glyph glyph-name="j" unicode="j" horiz-adv-x="473" 
d="M333 667v-334q0 -138 -97.5 -235.5t-235.5 -97.5v83q104 0 177 73.5t73 176.5v334h83z" />
    <glyph glyph-name="k" unicode="k" 
d="M500 667l-208 -334l208 -333h-98l-159 255l-160 -255h-83v667h83v-510l319 510h98z" />
    <glyph glyph-name="l" unicode="l" horiz-adv-x="603" 
d="M463 0h-463v667h83v-584h380v-83z" />
    <glyph glyph-name="m" unicode="m" horiz-adv-x="807" 
d="M583 667h84v-667h-84v540l-250 -286l-250 286v-540h-83v667h83l250 -286z" />
    <glyph glyph-name="n" unicode="n" 
d="M500 667v-667h-83v159l-334 381v-540h-83v667h83l334 -381v381h83z" />
    <glyph glyph-name="o" unicode="o" horiz-adv-x="825" 
d="M343 392l59 -59l-59 -59l-59 59zM342.5 74q107.5 0 183.5 76t76 183.5t-76 183.5t-183.5 76t-183.5 -76t-76 -183.5t76 -183.5t183.5 -76zM343 676q46 0 90.5 -12.5t82.5 -34.5t69 -53.5t53.5 -69t34.5 -82t12 -91.5q0 -69 -26.5 -132t-74 -110t-110 -73.5t-132 -26.5
t-132 26.5t-110 73.5t-74 110t-26.5 132q0 47 12 91.5t34.5 82t53.5 69.5q24 23 51.5 41.5t58 31.5t64.5 20t69 7z" />
    <glyph glyph-name="p" unicode="p" 
d="M376 346.5q41 40.5 41 98t-41 98t-98 40.5h-195v-277h195q57 0 98 40.5zM435 601.5q65 -65.5 65 -157.5t-65 -157t-157 -65h-195v-222h-83v667h278q92 0 157 -65.5z" />
    <glyph glyph-name="q" unicode="q" horiz-adv-x="825" 
d="M484 250l69 -68q49 67 49 151q0 108 -76 184t-183.5 76t-183.5 -76t-76 -183.5t76 -183.5t184 -76q84 0 151 49l-68 68zM685 333q0 -118 -73 -211l73 -72l-59 -59l-72 73q-93 -73 -211 -73q-70 0 -132.5 26.5t-110 73.5t-74 110t-26.5 132q0 47 12 91.5t34.5 82
t53.5 69.5q48 47 110.5 73.5t132 26.5t132 -26.5t110 -74t74 -110t26.5 -132.5z" />
    <glyph glyph-name="r" unicode="r" 
d="M83 306h195q57 0 98 40.5t41 98t-41 98t-98 40.5h-195v-277zM435 287q-36 -35 -82 -52l147 -235h-98l-139 222h-180v-222h-83v667h278q92 0 157 -65.5t65 -157.5t-65 -157z" />
    <glyph glyph-name="s" unicode="s" horiz-adv-x="603" 
d="M463 187.5q0 -77.5 -55 -132.5t-133 -55h-254v83h254q44 0 74.5 30.5t30.5 74t-30.5 74t-74.5 30.5h-87q-78 0 -133 54.5t-55 132.5t55 133t133 55h233v-84h-233q-44 0 -74.5 -30.5t-30.5 -73.5t30.5 -73.5t74.5 -30.5h87q78 0 133 -55t55 -132.5z" />
    <glyph glyph-name="t" unicode="t" 
d="M500 667v-84h-208v-583h-84v583h-208v84h500z" />
    <glyph glyph-name="u" unicode="u" 
d="M250 0q-104 0 -177 73t-73 177v417h83v-417q0 -69 49 -118t118 -49t118 49t49 118v417h83v-417q0 -104 -73 -177t-177 -73z" />
    <glyph glyph-name="v" unicode="v" horiz-adv-x="807" 
d="M576 667h91l-292 -667h-83l-292 667h91l242 -554z" />
    <glyph glyph-name="w" unicode="w" horiz-adv-x="1049" 
d="M821 667h88l-209 -667h-83l-163 521l-162 -521h-84l-208 667h87l163 -521l163 521h83l163 -521z" />
    <glyph glyph-name="x" unicode="x" horiz-adv-x="751" 
d="M611 667l-253 -334l253 -333h-105l-200 264l-201 -264h-105l253 333l-253 334h105l201 -265l200 265h105z" />
    <glyph glyph-name="y" unicode="y" horiz-adv-x="751" 
d="M509 667h102l-264 -375v-292h-83v292l-264 375h102l204 -290z" />
    <glyph glyph-name="z" unicode="z" 
d="M500 583l-390 -500h390v-83h-500v83l390 500h-390v84h500v-84z" />
    <glyph glyph-name="nonbreakingspace" unicode="&#xa0;" horiz-adv-x="448" 
 />
    <glyph glyph-name="Ccedilla" unicode="&#xc7;" horiz-adv-x="725" 
d="M526 150l59 -59q-41 -41 -92.5 -66t-108.5 -32v-113l-83 -28v141q-117 14 -201 98q-100 100 -100 242t100.5 242.5t242 100.5t242.5 -100l-59 -59q-76 76 -183.5 76t-183.5 -76t-76 -183.5t76 -183.5t183.5 -76t183.5 76z" />
    <glyph glyph-name="Odieresis" unicode="&#xd6;" horiz-adv-x="825" 
d="M259 731q-23 0 -39 16.5t-16 39.5t16 39.5t39 16.5t39.5 -16.5t16.5 -39.5t-16.5 -39.5t-39.5 -16.5zM426 731q-23 0 -39.5 16.5t-16.5 39.5t16.5 39.5t39.5 16.5t39 -16.5t16 -39.5t-16 -39.5t-39 -16.5zM526 150q76 76 76 183.5t-76 183.5t-183.5 76t-183.5 -76
t-76 -183.5t76 -183.5t183.5 -76t183.5 76zM585 576q47 -48 73.5 -110.5t26.5 -132t-26.5 -132.5t-74 -110t-110 -73.5t-132 -26.5t-132 26.5t-110 73.5t-74 110t-26.5 132q0 47 12 91.5t34.5 82t53.5 69.5q24 23 51.5 41.5t58 31.5t64.5 20t69 7q46 0 90.5 -12.5
t82.5 -34.5t69 -53z" />
    <glyph glyph-name="multiply" unicode="&#xd7;" horiz-adv-x="474" 
d="M226 278l108 -108l-59 -59l-108 108l-108 -108l-59 59l108 108l-108 108l59 59l108 -108l108 108l59 -59z" />
    <glyph glyph-name="Udieresis" unicode="&#xdc;" 
d="M167 722q-23 0 -39.5 16.5t-16.5 39.5t16.5 39t39.5 16t39 -16t16 -39t-16 -39.5t-39 -16.5zM333 722q-23 0 -39 16.5t-16 39.5t16 39t39 16t39.5 -16t16.5 -39t-16.5 -39.5t-39.5 -16.5zM417 667h83v-417q0 -104 -73 -177t-177 -73t-177 73t-73 177v417h83v-417
q0 -69 49 -118t118 -49t118 49t49 118v417z" />
    <glyph glyph-name="ccedilla" unicode="&#xe7;" horiz-adv-x="725" 
d="M526 150l59 -59q-41 -41 -92.5 -66t-108.5 -32v-113l-83 -28v141q-117 14 -201 98q-100 100 -100 242t100.5 242.5t242 100.5t242.5 -100l-59 -59q-76 76 -183.5 76t-183.5 -76t-76 -183.5t76 -183.5t183.5 -76t183.5 76z" />
    <glyph glyph-name="odieresis" unicode="&#xf6;" horiz-adv-x="825" 
d="M259 731q-23 0 -39 16.5t-16 39.5t16 39.5t39 16.5t39.5 -16.5t16.5 -39.5t-16.5 -39.5t-39.5 -16.5zM426 731q-23 0 -39.5 16.5t-16.5 39.5t16.5 39.5t39.5 16.5t39 -16.5t16 -39.5t-16 -39.5t-39 -16.5zM526 150q76 76 76 183.5t-76 183.5t-183.5 76t-183.5 -76
t-76 -183.5t76 -183.5t183.5 -76t183.5 76zM585 576q47 -48 73.5 -110.5t26.5 -132t-26.5 -132.5t-74 -110t-110 -73.5t-132 -26.5t-132 26.5t-110 73.5t-74 110t-26.5 132q0 47 12 91.5t34.5 82t53.5 69.5q24 23 51.5 41.5t58 31.5t64.5 20t69 7q46 0 90.5 -12.5
t82.5 -34.5t69 -53z" />
    <glyph glyph-name="divide" unicode="&#xf7;" horiz-adv-x="473" 
d="M167 361q-23 0 -39.5 16.5t-16.5 39.5t16.5 39t39.5 16t39 -16t16 -39t-16 -39.5t-39 -16.5zM0 319h333v-83h-333v83zM167 194q23 0 39 -16t16 -39t-16 -39.5t-39 -16.5t-39.5 16.5t-16.5 39.5t16.5 39t39.5 16z" />
    <glyph glyph-name="udieresis" unicode="&#xfc;" 
d="M167 722q-23 0 -39.5 16.5t-16.5 39.5t16.5 39t39.5 16t39 -16t16 -39t-16 -39.5t-39 -16.5zM333 722q-23 0 -39 16.5t-16 39.5t16 39t39 16t39.5 -16t16.5 -39t-16.5 -39.5t-39.5 -16.5zM417 667h83v-417q0 -104 -73 -177t-177 -73t-177 73t-73 177v417h83v-417
q0 -69 49 -118t118 -49t118 49t49 118v417z" />
    <glyph glyph-name="Gbreve" unicode="&#x11e;" horiz-adv-x="725" 
d="M454 745h-223l-27 84h277zM343 292v83h242v-284q-101 -100 -242.5 -100t-242 100t-100.5 242t100.5 242.5t242 100.5t242.5 -100l-59 -59q-76 76 -183.5 76t-183.5 -76t-76 -183.5t76 -183.5t184 -76q89 0 158 55v163h-158z" />
    <glyph glyph-name="gbreve" unicode="&#x11f;" horiz-adv-x="725" 
d="M454 745h-223l-27 84h277zM343 292v83h242v-284q-101 -100 -242.5 -100t-242 100t-100.5 242t100.5 242.5t242 100.5t242.5 -100l-59 -59q-76 76 -183.5 76t-183.5 -76t-76 -183.5t76 -183.5t184 -76q89 0 158 55v163h-158z" />
    <glyph glyph-name="Idotaccent" unicode="&#x130;" horiz-adv-x="251" 
d="M56 750q-23 0 -39.5 16.5t-16.5 39.5t16.5 39t39.5 16t39 -16t16 -39t-16 -39.5t-39 -16.5zM14 0v667h83v-667h-83z" />
    <glyph glyph-name="dotlessi" unicode="&#x131;" horiz-adv-x="223" 
d="M0 0v667h83v-667h-83z" />
    <glyph glyph-name="Scedilla" unicode="&#x15e;" horiz-adv-x="603" 
d="M463 187.5q0 -77.5 -55 -132.5t-133 -55h-2v-111l-83 -28v139h-169v83h254q44 0 74.5 30.5t30.5 74t-30.5 74t-74.5 30.5h-87q-78 0 -133 54.5t-55 132.5t55 133t133 55h233v-84h-233q-44 0 -74.5 -30.5t-30.5 -73.5t30.5 -73.5t74.5 -30.5h87q78 0 133 -55t55 -132.5z
" />
    <glyph glyph-name="scedilla" unicode="&#x15f;" horiz-adv-x="603" 
d="M463 187.5q0 -77.5 -55 -132.5t-133 -55h-2v-111l-83 -28v139h-169v83h254q44 0 74.5 30.5t30.5 74t-30.5 74t-74.5 30.5h-87q-78 0 -133 54.5t-55 132.5t55 133t133 55h233v-84h-233q-44 0 -74.5 -30.5t-30.5 -73.5t30.5 -73.5t74.5 -30.5h87q78 0 133 -55t55 -132.5z
" />
    <glyph glyph-name="Euro" unicode="&#x20ac;" horiz-adv-x="825" 
d="M260 517q-32 -32 -51 -73h401l-49 -83h-376q-1 -13 -1 -27.5t1 -27.5h344l-48 -84h-272q19 -40 51 -72q76 -76 183 -76t183 76q9 8 16 17v-113q-89 -63 -199 -63q-70 0 -132.5 26.5t-109.5 73.5q-57 56 -82 131h-119l48 84h53q-1 13 -1 27t1 28h-101l48 83h71
q25 75 82 132q47 47 109.5 73.5t132.5 26.5t132.5 -26.5t109.5 -73.5l-43 -76q-8 9 -16 17q-76 76 -183 76t-183 -76z" />
  </font>
</defs>
</svg>
